#!OML:ASF E:\id_vita\Project 1\Capture day 1\Session 1\Male1.ASF
:FULLY-SPECIFIED
:DEGREES
1050
root 16.4389 16.1768 -0.11237 783.113 84.7964 781.202
lowerback -4.35218 0.231816 -7.30826
upperback 0.100465 0.792495 -2.22686
thorax 2.4866 0.338411 1.84484
lowerneck -4.10178 7.69083 12.9152
upperneck 1.32159 9.63996 0.521276
head 1.76412 4.94214 -1.71042
rclavicle -6.53505e-015 -3.37934e-014
rhumerus -30.1666 -30.868 -77.5712
rradius 12.5264
rwrist 28.9274
rhand -19.5124 33.5449
rfingers 7.12502
rthumb 6.81052 3.67443
lclavicle -6.53505e-015 -3.37934e-014
lhumerus -35.4704 33.9732 65.8682
lradius 7.39061
lwrist -24.7253
lhand -12.9867 47.791
lfingers 7.12502
lthumb 13.106 77.3592
rfemur -1.02499 0.331141 13.8983
rtibia 54.4606
rfoot 3.70318 9.92592
rtoes 7.00165
lfemur -19.8835 1.43913 -28.2091
ltibia 29.5621
lfoot -16.0385 -4.41337
ltoes 0.648619
1051
root 16.5594 16.1921 -0.130306 783.277 84.9108 781.626
lowerback -4.05089 0.107661 -7.11975
upperback 0.0710709 0.58071 -2.12094
thorax 2.30468 0.239353 1.83431
lowerneck -3.96091 7.8641 13.021
upperneck 1.43421 9.88001 0.434563
head 1.80407 5.06438 -1.74738
rclavicle 4.50372e-017 3.97569e-016
rhumerus -31.4184 -34.1404 -75.1314
rradius 11.6327
rwrist 32.3494
rhand -19.6561 34.0244
rfingers 7.12502
rthumb 6.67177 4.14947
lclavicle 4.50372e-017 3.97569e-016
lhumerus -34.4658 33.9658 66.687
lradius 7.83314
lwrist -25.5401
lhand -12.8739 47.5722
lfingers 7.12502
lthumb 13.2147 77.1334
rfemur -2.13315 0.180011 13.8208
rtibia 56.2488
rfoot 2.91363 9.24798
rtoes 6.17693
lfemur -18.8955 1.41967 -28.2041
ltibia 29.1338
lfoot -16.2662 -4.44246
ltoes 1.33635
1052
root 16.6804 16.2066 -0.143052 786.089 84.8039 784.618
lowerback -3.95189 -0.0752833 -7.31426
upperback 0.0958358 0.337056 -2.0717
thorax 2.29416 0.115315 1.97868
lowerneck -4.04073 8.01865 12.8597
upperneck 1.51931 10.0747 0.550825
head 1.84146 5.16548 -1.66707
rclavicle -1.92903e-015 -2.14687e-014
rhumerus -32.6237 -36.6892 -72.9515
rradius 10.9899
rwrist 35.0339
rhand -19.6548 34.1805
rfingers 7.12502
rthumb 6.67308 4.30563
lclavicle -1.92903e-015 -2.14687e-014
lhumerus -33.4211 33.9301 67.4964
lradius 8.27496
lwrist -26.1042
lhand -13.2014 46.2538
lfingers 7.12502
lthumb 12.8991 75.8351
rfemur -3.3201 -0.150611 13.4085
rtibia 57.8861
rfoot 1.96625 8.8556
rtoes 3.41902
lfemur -17.98 1.40396 -28.5379
ltibia 28.5943
lfoot -16.671 -4.51832
ltoes 2.67943
1053
root 16.7999 16.2204 -0.154721 790.761 84.4768 789.354
lowerback -4.01255 -0.297894 -7.76708
upperback 0.150009 0.0767345 -2.12079
thorax 2.40839 -0.0225003 2.16406
lowerneck -4.24448 8.12176 12.933
upperneck 1.5278 10.177 0.396458
head 1.90235 5.21419 -1.71553
rclavicle 2.92159e-016 -4.45278e-014
rhumerus -33.6126 -38.1623 -71.451
rradius 10.6249
rwrist 36.5776
rhand -19.6231 33.4381
rfingers 7.12502
rthumb 6.70362 3.56419
lclavicle 2.92159e-016 -4.45278e-014
lhumerus -32.4776 33.7313 68.1307
lradius 8.90087
lwrist -26.5711
lhand -13.9644 43.6501
lfingers 7.12502
lthumb 12.1634 73.2764
rfemur -4.7448 -0.66844 12.6893
rtibia 59.3646
rfoot 0.992519 8.18165
rtoes 3.74985
lfemur -17.1388 1.34698 -29.1442
ltibia 28.0396
lfoot -17.5976 -4.60244
ltoes 7.01156
1054
root 16.917 16.2312 -0.165584 794.233 84.2303 792.896
lowerback -4.03919 -0.487526 -8.1277
upperback 0.195679 -0.15024 -2.12156
thorax 2.49453 -0.142929 2.34925
lowerneck -3.98545 8.32781 13.6824
upperneck 1.71363 10.4505 -0.203724
head 2.0272 5.35143 -2.03021
rclavicle -4.49789e-016 -2.66371e-014
rhumerus -34.5622 -39.2268 -70.0995
rradius 10.3272
rwrist 37.609
rhand -19.9219 33.3689
rfingers 7.12502
rthumb 6.41522 3.48604
lclavicle -4.49789e-016 -2.66371e-014
lhumerus -31.2481 33.5767 68.9609
lradius 9.3307
lwrist -27.1499
lhand -11.7421 46.0001
lfingers 7.12502
lthumb 14.3055 75.4873
rfemur -6.14492 -1.1249 12.1539
rtibia 60.6375
rfoot 0.265953 7.19779
rtoes 5.80484
lfemur -16.3028 1.17038 -29.5764
ltibia 27.5465
lfoot -16.9734 -4.38553
ltoes -0.0722087
1055
root 17.0388 16.2343 -0.177107 795.745 84.2511 794.612
lowerback -4.08262 -0.600566 -8.16797
upperback 0.298523 -0.29294 -2.01521
thorax 2.64127 -0.224019 2.47186
lowerneck -3.69226 8.33791 13.5936
upperneck 1.66205 10.5147 -0.170007
head 1.9534 5.38011 -2.01409
rclavicle 6.11394e-015 5.1684e-015
rhumerus -35.1369 -39.2276 -69.4208
rradius 10.3128
rwrist 37.2829
rhand -20.4355 34.1963
rfingers 7.12502
rthumb 5.91935 4.299
lclavicle 6.11394e-015 5.1684e-015
lhumerus -29.7212 33.4613 70.0721
lradius 9.57278
lwrist -27.5745
lhand -11.4235 46.2283
lfingers 7.12502
lthumb 14.6125 75.6935
rfemur -7.1949 -1.35798 12.0086
rtibia 61.6776
rfoot -0.204993 6.19243
rtoes 6.78441
lfemur -15.3955 0.95974 -29.6599
ltibia 27.1819
lfoot -17.2469 -4.25272
ltoes 1.16133
1056
root 17.1587 16.2389 -0.189873 797.458 84.5809 796.483
lowerback -4.11648 -0.738037 -7.86362
upperback 0.361589 -0.494023 -1.84833
thorax 2.74439 -0.328539 2.46169
lowerneck -3.74458 8.56368 13.5296
upperneck 1.74883 10.803 0.0281792
head 1.99378 5.53096 -1.91735
rclavicle 1.11211e-014 2.34566e-014
rhumerus -35.9538 -39.7724 -68.3575
rradius 10.3137
rwrist 37.4255
rhand -20.506 34.4648
rfingers 7.12502
rthumb 5.85127 4.56557
lclavicle 1.11211e-014 2.34566e-014
lhumerus -28.2869 33.3103 71.0977
lradius 9.89096
lwrist -27.7977
lhand -11.9561 45.7132
lfingers 7.12502
lthumb 14.0993 75.2149
rfemur -8.23177 -1.61434 12.2359
rtibia 62.4843
rfoot -0.379536 5.21392
rtoes 9.38557
lfemur -14.6595 0.892657 -29.4265
ltibia 27.0405
lfoot -17.5128 -3.94374
ltoes -3.08032
